v -0.525731086730957 0.8506507873535156 0.0
v -0.6156420111656189 0.7838430404663086 0.08108629286289215
v -0.4844416379928589 0.8649293184280396 0.13120037317276
v -0.6937804818153381 0.7020464539527893 0.1606220304965973
v -0.571251630783081 0.7926492094993591 0.2130228728055954
v -0.4338885545730591 0.8626684546470642 0.25989192724227905
v -0.7586523294448853 0.6068251729011536 0.23708632588386536
v -0.6474118828773499 0.7023098468780518 0.29600459337234497
v -0.80901700258255 0.5 0.30901700258255005
v -0.7071067690849304 0.601500928401947 0.37174803018569946
v -0.5877852439880371 0.6881909370422363 0.4253253936767578
v -0.5161216259002686 0.7834516763687134 0.34615302085876465
v -0.3750385642051697 0.8439114689826965 0.3836137354373932
v -0.45399048924446106 0.7579354047775269 0.4684298634529114
v -0.30901700258255005 0.80901700258255 0.5
v -0.8439114689826965 0.3836137354373932 0.3750385642051697
v -0.7579354047775269 0.4684298634529114 0.45399048924446106
v -0.8626684546470642 0.25989192724227905 0.4338885545730591
v -0.7834516763687134 0.34615302085876465 0.5161216259002686
v -0.6881909370422363 0.4253253936767578 0.5877852439880371
v -0.8649293184280396 0.13120037317276 0.4844416379928589
v -0.7926492094993591 0.2130228728055954 0.571251630783081
v -0.8506507873535156 0.0 0.525731086730957
v -0.7838430404663086 0.08108629286289215 0.6156420111656189
v -0.7020464539527893 0.1606220304965973 0.6937804818153381
v -0.7023098468780518 0.29600459337234497 0.6474118828773499
v -0.601500928401947 0.37174803018569946 0.7071067690849304
v -0.6068251729011536 0.23708632588386536 0.7586523294448853
v -0.5 0.30901700258255005 0.80901700258255
v -0.37174803018569946 0.7071067690849304 0.601500928401947
v -0.23708632588386536 0.7586523294448853 0.6068251729011536
v -0.4253253936767578 0.5877852439880371 0.6881909370422363
v -0.29600459337234497 0.6474118828773499 0.7023098468780518
v -0.1606220304965973 0.6937804818153381 0.7020464539527893
v -0.4684298634529114 0.45399048924446106 0.7579354047775269
v -0.34615302085876465 0.5161216259002686 0.7834516763687134
v -0.3836137354373932 0.3750385642051697 0.8439114689826965
v -0.25989192724227905 0.4338885545730591 0.8626684546470642
v -0.2130228728055954 0.571251630783081 0.7926492094993591
v -0.08108629286289215 0.6156420111656189 0.7838430404663086
v -0.13120037317276 0.4844416379928589 0.8649293184280396
v 0.0 0.525731086730957 0.8506507873535156
v -0.646577775478363 0.5642542243003845 0.513375461101532
v -0.5642542243003845 0.513375461101532 0.646577775478363
v -0.513375461101532 0.646577775478363 0.5642542243003845
v -0.40335536003112793 0.9150434136390686 0.0
v -0.35822880268096924 0.9243046045303345 0.13165536522865295
v -0.2732665240764618 0.9619383811950684 0.0
v -0.3012588918209076 0.9162441492080688 0.26408275961875916
v -0.23867693543434143 0.8910065293312073 0.3861873745918274
v -0.1624598503112793 0.9510565400123596 0.2628655433654785
v -0.22011703252792358 0.9663925766944885 0.13279247283935547
v -0.13795223832130432 0.9904388785362244 0.0
v -0.0822424665093422 0.9876883625984192 0.13307110965251923
v 0.0 1.0 0.0
v -0.15643446147441864 0.8401778936386108 0.5192584991455078
v -0.08114185184240341 0.7802043557167053 0.6202395558357239
v 0.0 0.8506507873535156 0.525731086730957
v 0.0 0.7029070258140564 0.7112817168235779
v 0.08108629286289215 0.6156420111656189 0.7838430404663086
v 0.1606220304965973 0.6937804818153381 0.7020464539527893
v 0.08114185184240341 0.7802043557167053 0.6202395558357239
v 0.15643446147441864 0.8401778936386108 0.5192584991455078
v 0.23708632588386536 0.7586523294448853 0.6068251729011536
v 0.30901700258255005 0.80901700258255 0.5
v 0.0822424665093422 0.9876883625984192 0.13307110965251923
v 0.13795223832130432 0.9904388785362244 0.0
v 0.1624598503112793 0.9510565400123596 0.2628655433654785
v 0.22011703252792358 0.9663925766944885 0.13279247283935547
v 0.2732665240764618 0.9619383811950684 0.0
v 0.23867693543434143 0.8910065293312073 0.3861873745918274
v 0.3012588918209076 0.9162441492080688 0.26408275961875916
v 0.3750385642051697 0.8439114689826965 0.3836137354373932
v 0.4338885545730591 0.8626684546470642 0.25989192724227905
v 0.35822880268096924 0.9243046045303345 0.13165536522865295
v 0.40335536003112793 0.9150434136390686 0.0
v 0.4844416379928589 0.8649293184280396 0.13120037317276
v 0.525731086730957 0.8506507873535156 0.0
v -0.0823235809803009 0.9129824638366699 0.3996070623397827
v 0.0823235809803009 0.9129824638366699 0.3996070623397827
v 0.0 0.9638612866401672 0.2664046883583069
v -0.4844416379928589 0.8649293184280396 -0.13120037317276
v -0.35822880268096924 0.9243046045303345 -0.13165536522865295
v -0.4338885545730591 0.8626684546470642 -0.25989192724227905
v -0.22011703252792358 0.9663925766944885 -0.13279247283935547
v -0.0822424665093422 0.9876883625984192 -0.13307110965251923
v -0.1624598503112793 0.9510565400123596 -0.2628655433654785
v -0.3012588918209076 0.9162441492080688 -0.26408275961875916
v -0.3750385642051697 0.8439114689826965 -0.3836137354373932
v -0.23867693543434143 0.8910065293312073 -0.3861873745918274
v -0.30901700258255005 0.80901700258255 -0.5
v 0.0822424665093422 0.9876883625984192 -0.13307110965251923
v 0.22011703252792358 0.9663925766944885 -0.13279247283935547
v 0.1624598503112793 0.9510565400123596 -0.2628655433654785
v 0.35822880268096924 0.9243046045303345 -0.13165536522865295
v 0.4844416379928589 0.8649293184280396 -0.13120037317276
v 0.4338885545730591 0.8626684546470642 -0.25989192724227905
v 0.3012588918209076 0.9162441492080688 -0.26408275961875916
v 0.23867693543434143 0.8910065293312073 -0.3861873745918274
v 0.3750385642051697 0.8439114689826965 -0.3836137354373932
v 0.30901700258255005 0.80901700258255 -0.5
v -0.15643446147441864 0.8401778936386108 -0.5192584991455078
v -0.23708632588386536 0.7586523294448853 -0.6068251729011536
v 0.0 0.8506507873535156 -0.525731086730957
v -0.08114185184240341 0.7802043557167053 -0.6202395558357239
v -0.1606220304965973 0.6937804818153381 -0.7020464539527893
v 0.15643446147441864 0.8401778936386108 -0.5192584991455078
v 0.08114185184240341 0.7802043557167053 -0.6202395558357239
v 0.23708632588386536 0.7586523294448853 -0.6068251729011536
v 0.1606220304965973 0.6937804818153381 -0.7020464539527893
v 0.0 0.7029070258140564 -0.7112817168235779
v -0.08108629286289215 0.6156420111656189 -0.7838430404663086
v 0.08108629286289215 0.6156420111656189 -0.7838430404663086
v 0.0 0.525731086730957 -0.8506507873535156
v 0.0 0.9638612866401672 -0.2664046883583069
v 0.0823235809803009 0.9129824638366699 -0.3996070623397827
v -0.0823235809803009 0.9129824638366699 -0.3996070623397827
v -0.6156420111656189 0.7838430404663086 -0.08108629286289215
v -0.571251630783081 0.7926492094993591 -0.2130228728055954
v -0.6937804818153381 0.7020464539527893 -0.1606220304965973
v -0.5161216259002686 0.7834516763687134 -0.34615302085876465
v -0.45399048924446106 0.7579354047775269 -0.4684298634529114
v -0.5877852439880371 0.6881909370422363 -0.4253253936767578
v -0.6474118828773499 0.7023098468780518 -0.29600459337234497
v -0.7586523294448853 0.6068251729011536 -0.23708632588386536
v -0.7071067690849304 0.601500928401947 -0.37174803018569946
v -0.80901700258255 0.5 -0.30901700258255005
v -0.37174803018569946 0.7071067690849304 -0.601500928401947
v -0.29600459337234497 0.6474118828773499 -0.7023098468780518
v -0.4253253936767578 0.5877852439880371 -0.6881909370422363
v -0.2130228728055954 0.571251630783081 -0.7926492094993591
v -0.13120037317276 0.4844416379928589 -0.8649293184280396
v -0.25989192724227905 0.4338885545730591 -0.8626684546470642
v -0.34615302085876465 0.5161216259002686 -0.7834516763687134
v -0.4684298634529114 0.45399048924446106 -0.7579354047775269
v -0.3836137354373932 0.3750385642051697 -0.8439114689826965
v -0.5 0.30901700258255005 -0.80901700258255
v -0.7579354047775269 0.4684298634529114 -0.45399048924446106
v -0.8439114689826965 0.3836137354373932 -0.3750385642051697
v -0.6881909370422363 0.4253253936767578 -0.5877852439880371
v -0.7834516763687134 0.34615302085876465 -0.5161216259002686
v -0.8626684546470642 0.25989192724227905 -0.4338885545730591
v -0.601500928401947 0.37174803018569946 -0.7071067690849304
v -0.7023098468780518 0.29600459337234497 -0.6474118828773499
v -0.6068251729011536 0.23708632588386536 -0.7586523294448853
v -0.7020464539527893 0.1606220304965973 -0.6937804818153381
v -0.7926492094993591 0.2130228728055954 -0.571251630783081
v -0.8649293184280396 0.13120037317276 -0.4844416379928589
v -0.7838430404663086 0.08108629286289215 -0.6156420111656189
v -0.8506507873535156 0.0 -0.525731086730957
v -0.513375461101532 0.646577775478363 -0.5642542243003845
v -0.5642542243003845 0.513375461101532 -0.646577775478363
v -0.646577775478363 0.5642542243003845 -0.513375461101532
v -0.7029070258140564 0.7112817168235779 0.0
v -0.7802043557167053 0.6202395558357239 -0.08114185184240341
v -0.8401778936386108 0.5192584991455078 -0.15643446147441864
v -0.8506507873535156 0.525731086730957 0.0
v -0.7802043557167053 0.6202395558357239 0.08114185184240341
v -0.8401778936386108 0.5192584991455078 0.15643446147441864
v -0.8910065293312073 0.3861873745918274 -0.23867693543434143
v -0.9162441492080688 0.26408275961875916 -0.3012588918209076
v -0.9510565400123596 0.2628655433654785 -0.1624598503112793
v -0.9243046045303345 0.13165536522865295 -0.35822880268096924
v -0.9150434136390686 0.0 -0.40335536003112793
v -0.9619383811950684 0.0 -0.2732665240764618
v -0.9663925766944885 0.13279247283935547 -0.22011703252792358
v -0.9876883625984192 0.13307110965251923 -0.0822424665093422
v -0.9904388785362244 0.0 -0.13795223832130432
v -1.0 0.0 0.0
v -0.8910065293312073 0.3861873745918274 0.23867693543434143
v -0.9510565400123596 0.2628655433654785 0.1624598503112793
v -0.9162441492080688 0.26408275961875916 0.3012588918209076
v -0.9876883625984192 0.13307110965251923 0.0822424665093422
v -0.9663925766944885 0.13279247283935547 0.22011703252792358
v -0.9904388785362244 0.0 0.13795223832130432
v -0.9619383811950684 0.0 0.2732665240764618
v -0.9243046045303345 0.13165536522865295 0.35822880268096924
v -0.9150434136390686 0.0 0.40335536003112793
v -0.9129824638366699 0.3996070623397827 -0.0823235809803009
v -0.9638612866401672 0.2664046883583069 0.0
v -0.9129824638366699 0.3996070623397827 0.0823235809803009
v 0.6156420111656189 0.7838430404663086 0.08108629286289215
v 0.571251630783081 0.7926492094993591 0.2130228728055954
v 0.6937804818153381 0.7020464539527893 0.1606220304965973
v 0.5161216259002686 0.7834516763687134 0.34615302085876465
v 0.45399048924446106 0.7579354047775269 0.4684298634529114
v 0.5877852439880371 0.6881909370422363 0.4253253936767578
v 0.6474118828773499 0.7023098468780518 0.29600459337234497
v 0.7586523294448853 0.6068251729011536 0.23708632588386536
v 0.7071067690849304 0.601500928401947 0.37174803018569946
v 0.80901700258255 0.5 0.30901700258255005
v 0.37174803018569946 0.7071067690849304 0.601500928401947
v 0.29600459337234497 0.6474118828773499 0.7023098468780518
v 0.4253253936767578 0.5877852439880371 0.6881909370422363
v 0.2130228728055954 0.571251630783081 0.7926492094993591
v 0.13120037317276 0.4844416379928589 0.8649293184280396
v 0.25989192724227905 0.4338885545730591 0.8626684546470642
v 0.34615302085876465 0.5161216259002686 0.7834516763687134
v 0.4684298634529114 0.45399048924446106 0.7579354047775269
v 0.3836137354373932 0.3750385642051697 0.8439114689826965
v 0.5 0.30901700258255005 0.80901700258255
v 0.7579354047775269 0.4684298634529114 0.45399048924446106
v 0.8439114689826965 0.3836137354373932 0.3750385642051697
v 0.6881909370422363 0.4253253936767578 0.5877852439880371
v 0.7834516763687134 0.34615302085876465 0.5161216259002686
v 0.8626684546470642 0.25989192724227905 0.4338885545730591
v 0.601500928401947 0.37174803018569946 0.7071067690849304
v 0.7023098468780518 0.29600459337234497 0.6474118828773499
v 0.6068251729011536 0.23708632588386536 0.7586523294448853
v 0.7020464539527893 0.1606220304965973 0.6937804818153381
v 0.7926492094993591 0.2130228728055954 0.571251630783081
v 0.8649293184280396 0.13120037317276 0.4844416379928589
v 0.7838430404663086 0.08108629286289215 0.6156420111656189
v 0.8506507873535156 0.0 0.525731086730957
v 0.513375461101532 0.646577775478363 0.5642542243003845
v 0.5642542243003845 0.513375461101532 0.646577775478363
v 0.646577775478363 0.5642542243003845 0.513375461101532
v 0.0 0.40335536003112793 0.9150434136390686
v -0.13165536522865295 0.35822880268096924 0.9243046045303345
v 0.0 0.2732665240764618 0.9619383811950684
v -0.26408275961875916 0.3012588918209076 0.9162441492080688
v -0.3861873745918274 0.23867693543434143 0.8910065293312073
v -0.2628655433654785 0.1624598503112793 0.9510565400123596
v -0.13279247283935547 0.22011703252792358 0.9663925766944885
v 0.0 0.13795223832130432 0.9904388785362244
v -0.13307110965251923 0.0822424665093422 0.9876883625984192
v 0.0 0.0 1.0
v -0.5192584991455078 0.15643446147441864 0.8401778936386108
v -0.6202395558357239 0.08114185184240341 0.7802043557167053
v -0.525731086730957 0.0 0.8506507873535156
v -0.7112817168235779 0.0 0.7029070258140564
v -0.7838430404663086 -0.08108629286289215 0.6156420111656189
v -0.7020464539527893 -0.1606220304965973 0.6937804818153381
v -0.6202395558357239 -0.08114185184240341 0.7802043557167053
v -0.5192584991455078 -0.15643446147441864 0.8401778936386108
v -0.6068251729011536 -0.23708632588386536 0.7586523294448853
v -0.5 -0.30901700258255005 0.80901700258255
v -0.13307110965251923 -0.0822424665093422 0.9876883625984192
v 0.0 -0.13795223832130432 0.9904388785362244
v -0.2628655433654785 -0.1624598503112793 0.9510565400123596
v -0.13279247283935547 -0.22011703252792358 0.9663925766944885
v 0.0 -0.2732665240764618 0.9619383811950684
v -0.3861873745918274 -0.23867693543434143 0.8910065293312073
v -0.26408275961875916 -0.3012588918209076 0.9162441492080688
v -0.3836137354373932 -0.3750385642051697 0.8439114689826965
v -0.25989192724227905 -0.4338885545730591 0.8626684546470642
v -0.13165536522865295 -0.35822880268096924 0.9243046045303345
v 0.0 -0.40335536003112793 0.9150434136390686
v -0.13120037317276 -0.4844416379928589 0.8649293184280396
v 0.0 -0.525731086730957 0.8506507873535156
v -0.3996070623397827 0.0823235809803009 0.9129824638366699
v -0.3996070623397827 -0.0823235809803009 0.9129824638366699
v -0.2664046883583069 0.0 0.9638612866401672
v -0.8649293184280396 -0.13120037317276 0.4844416379928589
v -0.9243046045303345 -0.13165536522865295 0.35822880268096924
v -0.8626684546470642 -0.25989192724227905 0.4338885545730591
v -0.9663925766944885 -0.13279247283935547 0.22011703252792358
v -0.9876883625984192 -0.13307110965251923 0.0822424665093422
v -0.9510565400123596 -0.2628655433654785 0.1624598503112793
v -0.9162441492080688 -0.26408275961875916 0.3012588918209076
v -0.8439114689826965 -0.3836137354373932 0.3750385642051697
v -0.8910065293312073 -0.3861873745918274 0.23867693543434143
v -0.80901700258255 -0.5 0.30901700258255005
v -0.9876883625984192 -0.13307110965251923 -0.0822424665093422
v -0.9663925766944885 -0.13279247283935547 -0.22011703252792358
v -0.9510565400123596 -0.2628655433654785 -0.1624598503112793
v -0.9243046045303345 -0.13165536522865295 -0.35822880268096924
v -0.8649293184280396 -0.13120037317276 -0.4844416379928589
v -0.8626684546470642 -0.25989192724227905 -0.4338885545730591
v -0.9162441492080688 -0.26408275961875916 -0.3012588918209076
v -0.8910065293312073 -0.3861873745918274 -0.23867693543434143
v -0.8439114689826965 -0.3836137354373932 -0.3750385642051697
v -0.80901700258255 -0.5 -0.30901700258255005
v -0.8401778936386108 -0.5192584991455078 0.15643446147441864
v -0.7586523294448853 -0.6068251729011536 0.23708632588386536
v -0.8506507873535156 -0.525731086730957 0.0
v -0.7802043557167053 -0.6202395558357239 0.08114185184240341
v -0.6937804818153381 -0.7020464539527893 0.1606220304965973
v -0.8401778936386108 -0.5192584991455078 -0.15643446147441864
v -0.7802043557167053 -0.6202395558357239 -0.08114185184240341
v -0.7586523294448853 -0.6068251729011536 -0.23708632588386536
v -0.6937804818153381 -0.7020464539527893 -0.1606220304965973
v -0.7029070258140564 -0.7112817168235779 0.0
v -0.6156420111656189 -0.7838430404663086 0.08108629286289215
v -0.6156420111656189 -0.7838430404663086 -0.08108629286289215
v -0.525731086730957 -0.8506507873535156 0.0
v -0.9638612866401672 -0.2664046883583069 0.0
v -0.9129824638366699 -0.3996070623397827 -0.0823235809803009
v -0.9129824638366699 -0.3996070623397827 0.0823235809803009
v -0.7838430404663086 -0.08108629286289215 -0.6156420111656189
v -0.7112817168235779 0.0 -0.7029070258140564
v -0.7020464539527893 -0.1606220304965973 -0.6937804818153381
v -0.6202395558357239 0.08114185184240341 -0.7802043557167053
v -0.5192584991455078 0.15643446147441864 -0.8401778936386108
v -0.525731086730957 0.0 -0.8506507873535156
v -0.6202395558357239 -0.08114185184240341 -0.7802043557167053
v -0.6068251729011536 -0.23708632588386536 -0.7586523294448853
v -0.5192584991455078 -0.15643446147441864 -0.8401778936386108
v -0.5 -0.30901700258255005 -0.80901700258255
v -0.3861873745918274 0.23867693543434143 -0.8910065293312073
v -0.26408275961875916 0.3012588918209076 -0.9162441492080688
v -0.2628655433654785 0.1624598503112793 -0.9510565400123596
v -0.13165536522865295 0.35822880268096924 -0.9243046045303345
v 0.0 0.40335536003112793 -0.9150434136390686
v 0.0 0.2732665240764618 -0.9619383811950684
v -0.13279247283935547 0.22011703252792358 -0.9663925766944885
v -0.13307110965251923 0.0822424665093422 -0.9876883625984192
v 0.0 0.13795223832130432 -0.9904388785362244
v 0.0 0.0 -1.0
v -0.3861873745918274 -0.23867693543434143 -0.8910065293312073
v -0.3836137354373932 -0.3750385642051697 -0.8439114689826965
v -0.2628655433654785 -0.1624598503112793 -0.9510565400123596
v -0.26408275961875916 -0.3012588918209076 -0.9162441492080688
v -0.25989192724227905 -0.4338885545730591 -0.8626684546470642
v -0.13307110965251923 -0.0822424665093422 -0.9876883625984192
v -0.13279247283935547 -0.22011703252792358 -0.9663925766944885
v 0.0 -0.13795223832130432 -0.9904388785362244
v 0.0 -0.2732665240764618 -0.9619383811950684
v -0.13165536522865295 -0.35822880268096924 -0.9243046045303345
v -0.13120037317276 -0.4844416379928589 -0.8649293184280396
v 0.0 -0.40335536003112793 -0.9150434136390686
v 0.0 -0.525731086730957 -0.8506507873535156
v -0.3996070623397827 0.0823235809803009 -0.9129824638366699
v -0.2664046883583069 0.0 -0.9638612866401672
v -0.3996070623397827 -0.0823235809803009 -0.9129824638366699
v 0.13120037317276 0.4844416379928589 -0.8649293184280396
v 0.2130228728055954 0.571251630783081 -0.7926492094993591
v 0.25989192724227905 0.4338885545730591 -0.8626684546470642
v 0.29600459337234497 0.6474118828773499 -0.7023098468780518
v 0.37174803018569946 0.7071067690849304 -0.601500928401947
v 0.4253253936767578 0.5877852439880371 -0.6881909370422363
v 0.34615302085876465 0.5161216259002686 -0.7834516763687134
v 0.3836137354373932 0.3750385642051697 -0.8439114689826965
v 0.4684298634529114 0.45399048924446106 -0.7579354047775269
v 0.5 0.30901700258255005 -0.80901700258255
v 0.45399048924446106 0.7579354047775269 -0.4684298634529114
v 0.5161216259002686 0.7834516763687134 -0.34615302085876465
v 0.5877852439880371 0.6881909370422363 -0.4253253936767578
v 0.571251630783081 0.7926492094993591 -0.2130228728055954
v 0.6156420111656189 0.7838430404663086 -0.08108629286289215
v 0.6937804818153381 0.7020464539527893 -0.1606220304965973
v 0.6474118828773499 0.7023098468780518 -0.29600459337234497
v 0.7071067690849304 0.601500928401947 -0.37174803018569946
v 0.7586523294448853 0.6068251729011536 -0.23708632588386536
v 0.80901700258255 0.5 -0.30901700258255005
v 0.601500928401947 0.37174803018569946 -0.7071067690849304
v 0.6068251729011536 0.23708632588386536 -0.7586523294448853
v 0.6881909370422363 0.4253253936767578 -0.5877852439880371
v 0.7023098468780518 0.29600459337234497 -0.6474118828773499
v 0.7020464539527893 0.1606220304965973 -0.6937804818153381
v 0.7579354047775269 0.4684298634529114 -0.45399048924446106
v 0.7834516763687134 0.34615302085876465 -0.5161216259002686
v 0.8439114689826965 0.3836137354373932 -0.3750385642051697
v 0.8626684546470642 0.25989192724227905 -0.4338885545730591
v 0.7926492094993591 0.2130228728055954 -0.571251630783081
v 0.7838430404663086 0.08108629286289215 -0.6156420111656189
v 0.8649293184280396 0.13120037317276 -0.4844416379928589
v 0.8506507873535156 0.0 -0.525731086730957
v 0.513375461101532 0.646577775478363 -0.5642542243003845
v 0.646577775478363 0.5642542243003845 -0.513375461101532
v 0.5642542243003845 0.513375461101532 -0.646577775478363
v 0.525731086730957 -0.8506507873535156 0.0
v 0.6156420111656189 -0.7838430404663086 0.08108629286289215
v 0.4844416379928589 -0.8649293184280396 0.13120037317276
v 0.6937804818153381 -0.7020464539527893 0.1606220304965973
v 0.571251630783081 -0.7926492094993591 0.2130228728055954
v 0.4338885545730591 -0.8626684546470642 0.25989192724227905
v 0.7586523294448853 -0.6068251729011536 0.23708632588386536
v 0.6474118828773499 -0.7023098468780518 0.29600459337234497
v 0.80901700258255 -0.5 0.30901700258255005
v 0.7071067690849304 -0.601500928401947 0.37174803018569946
v 0.5877852439880371 -0.6881909370422363 0.4253253936767578
v 0.5161216259002686 -0.7834516763687134 0.34615302085876465
v 0.3750385642051697 -0.8439114689826965 0.3836137354373932
v 0.45399048924446106 -0.7579354047775269 0.4684298634529114
v 0.30901700258255005 -0.80901700258255 0.5
v 0.8439114689826965 -0.3836137354373932 0.3750385642051697
v 0.7579354047775269 -0.4684298634529114 0.45399048924446106
v 0.8626684546470642 -0.25989192724227905 0.4338885545730591
v 0.7834516763687134 -0.34615302085876465 0.5161216259002686
v 0.6881909370422363 -0.4253253936767578 0.5877852439880371
v 0.8649293184280396 -0.13120037317276 0.4844416379928589
v 0.7926492094993591 -0.2130228728055954 0.571251630783081
v 0.7838430404663086 -0.08108629286289215 0.6156420111656189
v 0.7020464539527893 -0.1606220304965973 0.6937804818153381
v 0.7023098468780518 -0.29600459337234497 0.6474118828773499
v 0.601500928401947 -0.37174803018569946 0.7071067690849304
v 0.6068251729011536 -0.23708632588386536 0.7586523294448853
v 0.5 -0.30901700258255005 0.80901700258255
v 0.37174803018569946 -0.7071067690849304 0.601500928401947
v 0.23708632588386536 -0.7586523294448853 0.6068251729011536
v 0.4253253936767578 -0.5877852439880371 0.6881909370422363
v 0.29600459337234497 -0.6474118828773499 0.7023098468780518
v 0.1606220304965973 -0.6937804818153381 0.7020464539527893
v 0.4684298634529114 -0.45399048924446106 0.7579354047775269
v 0.34615302085876465 -0.5161216259002686 0.7834516763687134
v 0.3836137354373932 -0.3750385642051697 0.8439114689826965
v 0.25989192724227905 -0.4338885545730591 0.8626684546470642
v 0.2130228728055954 -0.571251630783081 0.7926492094993591
v 0.08108629286289215 -0.6156420111656189 0.7838430404663086
v 0.13120037317276 -0.4844416379928589 0.8649293184280396
v 0.646577775478363 -0.5642542243003845 0.513375461101532
v 0.5642542243003845 -0.513375461101532 0.646577775478363
v 0.513375461101532 -0.646577775478363 0.5642542243003845
v 0.40335536003112793 -0.9150434136390686 0.0
v 0.35822880268096924 -0.9243046045303345 0.13165536522865295
v 0.2732665240764618 -0.9619383811950684 0.0
v 0.3012588918209076 -0.9162441492080688 0.26408275961875916
v 0.23867693543434143 -0.8910065293312073 0.3861873745918274
v 0.1624598503112793 -0.9510565400123596 0.2628655433654785
v 0.22011703252792358 -0.9663925766944885 0.13279247283935547
v 0.13795223832130432 -0.9904388785362244 0.0
v 0.0822424665093422 -0.9876883625984192 0.13307110965251923
v 0.0 -1.0 0.0
v 0.15643446147441864 -0.8401778936386108 0.5192584991455078
v 0.08114185184240341 -0.7802043557167053 0.6202395558357239
v 0.0 -0.8506507873535156 0.525731086730957
v 0.0 -0.7029070258140564 0.7112817168235779
v -0.08108629286289215 -0.6156420111656189 0.7838430404663086
v -0.1606220304965973 -0.6937804818153381 0.7020464539527893
v -0.08114185184240341 -0.7802043557167053 0.6202395558357239
v -0.15643446147441864 -0.8401778936386108 0.5192584991455078
v -0.23708632588386536 -0.7586523294448853 0.6068251729011536
v -0.30901700258255005 -0.80901700258255 0.5
v -0.0822424665093422 -0.9876883625984192 0.13307110965251923
v -0.13795223832130432 -0.9904388785362244 0.0
v -0.1624598503112793 -0.9510565400123596 0.2628655433654785
v -0.22011703252792358 -0.9663925766944885 0.13279247283935547
v -0.2732665240764618 -0.9619383811950684 0.0
v -0.23867693543434143 -0.8910065293312073 0.3861873745918274
v -0.3012588918209076 -0.9162441492080688 0.26408275961875916
v -0.3750385642051697 -0.8439114689826965 0.3836137354373932
v -0.4338885545730591 -0.8626684546470642 0.25989192724227905
v -0.35822880268096924 -0.9243046045303345 0.13165536522865295
v -0.40335536003112793 -0.9150434136390686 0.0
v -0.4844416379928589 -0.8649293184280396 0.13120037317276
v 0.0823235809803009 -0.9129824638366699 0.3996070623397827
v -0.0823235809803009 -0.9129824638366699 0.3996070623397827
v 0.0 -0.9638612866401672 0.2664046883583069
v 0.4844416379928589 -0.8649293184280396 -0.13120037317276
v 0.35822880268096924 -0.9243046045303345 -0.13165536522865295
v 0.4338885545730591 -0.8626684546470642 -0.25989192724227905
v 0.22011703252792358 -0.9663925766944885 -0.13279247283935547
v 0.0822424665093422 -0.9876883625984192 -0.13307110965251923
v 0.1624598503112793 -0.9510565400123596 -0.2628655433654785
v 0.3012588918209076 -0.9162441492080688 -0.26408275961875916
v 0.3750385642051697 -0.8439114689826965 -0.3836137354373932
v 0.23867693543434143 -0.8910065293312073 -0.3861873745918274
v 0.30901700258255005 -0.80901700258255 -0.5
v -0.0822424665093422 -0.9876883625984192 -0.13307110965251923
v -0.22011703252792358 -0.9663925766944885 -0.13279247283935547
v -0.1624598503112793 -0.9510565400123596 -0.2628655433654785
v -0.35822880268096924 -0.9243046045303345 -0.13165536522865295
v -0.4844416379928589 -0.8649293184280396 -0.13120037317276
v -0.4338885545730591 -0.8626684546470642 -0.25989192724227905
v -0.3012588918209076 -0.9162441492080688 -0.26408275961875916
v -0.23867693543434143 -0.8910065293312073 -0.3861873745918274
v -0.3750385642051697 -0.8439114689826965 -0.3836137354373932
v -0.30901700258255005 -0.80901700258255 -0.5
v 0.15643446147441864 -0.8401778936386108 -0.5192584991455078
v 0.23708632588386536 -0.7586523294448853 -0.6068251729011536
v 0.0 -0.8506507873535156 -0.525731086730957
v 0.08114185184240341 -0.7802043557167053 -0.6202395558357239
v 0.1606220304965973 -0.6937804818153381 -0.7020464539527893
v -0.15643446147441864 -0.8401778936386108 -0.5192584991455078
v -0.08114185184240341 -0.7802043557167053 -0.6202395558357239
v -0.23708632588386536 -0.7586523294448853 -0.6068251729011536
v -0.1606220304965973 -0.6937804818153381 -0.7020464539527893
v 0.0 -0.7029070258140564 -0.7112817168235779
v 0.08108629286289215 -0.6156420111656189 -0.7838430404663086
v -0.08108629286289215 -0.6156420111656189 -0.7838430404663086
v 0.0 -0.9638612866401672 -0.2664046883583069
v -0.0823235809803009 -0.9129824638366699 -0.3996070623397827
v 0.0823235809803009 -0.9129824638366699 -0.3996070623397827
v 0.6156420111656189 -0.7838430404663086 -0.08108629286289215
v 0.571251630783081 -0.7926492094993591 -0.2130228728055954
v 0.6937804818153381 -0.7020464539527893 -0.1606220304965973
v 0.5161216259002686 -0.7834516763687134 -0.34615302085876465
v 0.45399048924446106 -0.7579354047775269 -0.4684298634529114
v 0.5877852439880371 -0.6881909370422363 -0.4253253936767578
v 0.6474118828773499 -0.7023098468780518 -0.29600459337234497
v 0.7586523294448853 -0.6068251729011536 -0.23708632588386536
v 0.7071067690849304 -0.601500928401947 -0.37174803018569946
v 0.80901700258255 -0.5 -0.30901700258255005
v 0.37174803018569946 -0.7071067690849304 -0.601500928401947
v 0.29600459337234497 -0.6474118828773499 -0.7023098468780518
v 0.4253253936767578 -0.5877852439880371 -0.6881909370422363
v 0.2130228728055954 -0.571251630783081 -0.7926492094993591
v 0.13120037317276 -0.4844416379928589 -0.8649293184280396
v 0.25989192724227905 -0.4338885545730591 -0.8626684546470642
v 0.34615302085876465 -0.5161216259002686 -0.7834516763687134
v 0.4684298634529114 -0.45399048924446106 -0.7579354047775269
v 0.3836137354373932 -0.3750385642051697 -0.8439114689826965
v 0.5 -0.30901700258255005 -0.80901700258255
v 0.7579354047775269 -0.4684298634529114 -0.45399048924446106
v 0.8439114689826965 -0.3836137354373932 -0.3750385642051697
v 0.6881909370422363 -0.4253253936767578 -0.5877852439880371
v 0.7834516763687134 -0.34615302085876465 -0.5161216259002686
v 0.8626684546470642 -0.25989192724227905 -0.4338885545730591
v 0.601500928401947 -0.37174803018569946 -0.7071067690849304
v 0.7023098468780518 -0.29600459337234497 -0.6474118828773499
v 0.6068251729011536 -0.23708632588386536 -0.7586523294448853
v 0.7020464539527893 -0.1606220304965973 -0.6937804818153381
v 0.7926492094993591 -0.2130228728055954 -0.571251630783081
v 0.8649293184280396 -0.13120037317276 -0.4844416379928589
v 0.7838430404663086 -0.08108629286289215 -0.6156420111656189
v 0.513375461101532 -0.646577775478363 -0.5642542243003845
v 0.5642542243003845 -0.513375461101532 -0.646577775478363
v 0.646577775478363 -0.5642542243003845 -0.513375461101532
v 0.7029070258140564 -0.7112817168235779 0.0
v 0.7802043557167053 -0.6202395558357239 -0.08114185184240341
v 0.8401778936386108 -0.5192584991455078 -0.15643446147441864
v 0.8506507873535156 -0.525731086730957 0.0
v 0.7802043557167053 -0.6202395558357239 0.08114185184240341
v 0.8401778936386108 -0.5192584991455078 0.15643446147441864
v 0.8910065293312073 -0.3861873745918274 -0.23867693543434143
v 0.9162441492080688 -0.26408275961875916 -0.3012588918209076
v 0.9510565400123596 -0.2628655433654785 -0.1624598503112793
v 0.9243046045303345 -0.13165536522865295 -0.35822880268096924
v 0.9150434136390686 0.0 -0.40335536003112793
v 0.9619383811950684 0.0 -0.2732665240764618
v 0.9663925766944885 -0.13279247283935547 -0.22011703252792358
v 0.9876883625984192 -0.13307110965251923 -0.0822424665093422
v 0.9904388785362244 0.0 -0.13795223832130432
v 1.0 0.0 0.0
v 0.8910065293312073 -0.3861873745918274 0.23867693543434143
v 0.9510565400123596 -0.2628655433654785 0.1624598503112793
v 0.9162441492080688 -0.26408275961875916 0.3012588918209076
v 0.9876883625984192 -0.13307110965251923 0.0822424665093422
v 0.9663925766944885 -0.13279247283935547 0.22011703252792358
v 0.9904388785362244 0.0 0.13795223832130432
v 0.9619383811950684 0.0 0.2732665240764618
v 0.9243046045303345 -0.13165536522865295 0.35822880268096924
v 0.9150434136390686 0.0 0.40335536003112793
v 0.9129824638366699 -0.3996070623397827 -0.0823235809803009
v 0.9638612866401672 -0.2664046883583069 0.0
v 0.9129824638366699 -0.3996070623397827 0.0823235809803009
v 0.13165536522865295 -0.35822880268096924 0.9243046045303345
v 0.26408275961875916 -0.3012588918209076 0.9162441492080688
v 0.3861873745918274 -0.23867693543434143 0.8910065293312073
v 0.2628655433654785 -0.1624598503112793 0.9510565400123596
v 0.13279247283935547 -0.22011703252792358 0.9663925766944885
v 0.13307110965251923 -0.0822424665093422 0.9876883625984192
v 0.5192584991455078 -0.15643446147441864 0.8401778936386108
v 0.6202395558357239 -0.08114185184240341 0.7802043557167053
v 0.525731086730957 0.0 0.8506507873535156
v 0.7112817168235779 0.0 0.7029070258140564
v 0.6202395558357239 0.08114185184240341 0.7802043557167053
v 0.5192584991455078 0.15643446147441864 0.8401778936386108
v 0.13307110965251923 0.0822424665093422 0.9876883625984192
v 0.2628655433654785 0.1624598503112793 0.9510565400123596
v 0.13279247283935547 0.22011703252792358 0.9663925766944885
v 0.3861873745918274 0.23867693543434143 0.8910065293312073
v 0.26408275961875916 0.3012588918209076 0.9162441492080688
v 0.13165536522865295 0.35822880268096924 0.9243046045303345
v 0.3996070623397827 -0.0823235809803009 0.9129824638366699
v 0.3996070623397827 0.0823235809803009 0.9129824638366699
v 0.2664046883583069 0.0 0.9638612866401672
v -0.571251630783081 -0.7926492094993591 0.2130228728055954
v -0.5161216259002686 -0.7834516763687134 0.34615302085876465
v -0.45399048924446106 -0.7579354047775269 0.4684298634529114
v -0.5877852439880371 -0.6881909370422363 0.4253253936767578
v -0.6474118828773499 -0.7023098468780518 0.29600459337234497
v -0.7071067690849304 -0.601500928401947 0.37174803018569946
v -0.37174803018569946 -0.7071067690849304 0.601500928401947
v -0.29600459337234497 -0.6474118828773499 0.7023098468780518
v -0.4253253936767578 -0.5877852439880371 0.6881909370422363
v -0.2130228728055954 -0.571251630783081 0.7926492094993591
v -0.34615302085876465 -0.5161216259002686 0.7834516763687134
v -0.4684298634529114 -0.45399048924446106 0.7579354047775269
v -0.7579354047775269 -0.4684298634529114 0.45399048924446106
v -0.6881909370422363 -0.4253253936767578 0.5877852439880371
v -0.7834516763687134 -0.34615302085876465 0.5161216259002686
v -0.601500928401947 -0.37174803018569946 0.7071067690849304
v -0.7023098468780518 -0.29600459337234497 0.6474118828773499
v -0.7926492094993591 -0.2130228728055954 0.571251630783081
v -0.513375461101532 -0.646577775478363 0.5642542243003845
v -0.5642542243003845 -0.513375461101532 0.646577775478363
v -0.646577775478363 -0.5642542243003845 0.513375461101532
v -0.2130228728055954 -0.571251630783081 -0.7926492094993591
v -0.29600459337234497 -0.6474118828773499 -0.7023098468780518
v -0.37174803018569946 -0.7071067690849304 -0.601500928401947
v -0.4253253936767578 -0.5877852439880371 -0.6881909370422363
v -0.34615302085876465 -0.5161216259002686 -0.7834516763687134
v -0.4684298634529114 -0.45399048924446106 -0.7579354047775269
v -0.45399048924446106 -0.7579354047775269 -0.4684298634529114
v -0.5161216259002686 -0.7834516763687134 -0.34615302085876465
v -0.5877852439880371 -0.6881909370422363 -0.4253253936767578
v -0.571251630783081 -0.7926492094993591 -0.2130228728055954
v -0.6474118828773499 -0.7023098468780518 -0.29600459337234497
v -0.7071067690849304 -0.601500928401947 -0.37174803018569946
v -0.601500928401947 -0.37174803018569946 -0.7071067690849304
v -0.6881909370422363 -0.4253253936767578 -0.5877852439880371
v -0.7023098468780518 -0.29600459337234497 -0.6474118828773499
v -0.7579354047775269 -0.4684298634529114 -0.45399048924446106
v -0.7834516763687134 -0.34615302085876465 -0.5161216259002686
v -0.7926492094993591 -0.2130228728055954 -0.571251630783081
v -0.513375461101532 -0.646577775478363 -0.5642542243003845
v -0.646577775478363 -0.5642542243003845 -0.513375461101532
v -0.5642542243003845 -0.513375461101532 -0.646577775478363
v 0.7112817168235779 0.0 -0.7029070258140564
v 0.6202395558357239 -0.08114185184240341 -0.7802043557167053
v 0.5192584991455078 -0.15643446147441864 -0.8401778936386108
v 0.525731086730957 0.0 -0.8506507873535156
v 0.6202395558357239 0.08114185184240341 -0.7802043557167053
v 0.5192584991455078 0.15643446147441864 -0.8401778936386108
v 0.3861873745918274 -0.23867693543434143 -0.8910065293312073
v 0.26408275961875916 -0.3012588918209076 -0.9162441492080688
v 0.2628655433654785 -0.1624598503112793 -0.9510565400123596
v 0.13165536522865295 -0.35822880268096924 -0.9243046045303345
v 0.13279247283935547 -0.22011703252792358 -0.9663925766944885
v 0.13307110965251923 -0.0822424665093422 -0.9876883625984192
v 0.3861873745918274 0.23867693543434143 -0.8910065293312073
v 0.2628655433654785 0.1624598503112793 -0.9510565400123596
v 0.26408275961875916 0.3012588918209076 -0.9162441492080688
v 0.13307110965251923 0.0822424665093422 -0.9876883625984192
v 0.13279247283935547 0.22011703252792358 -0.9663925766944885
v 0.13165536522865295 0.35822880268096924 -0.9243046045303345
v 0.3996070623397827 -0.0823235809803009 -0.9129824638366699
v 0.2664046883583069 0.0 -0.9638612866401672
v 0.3996070623397827 0.0823235809803009 -0.9129824638366699
v 0.9243046045303345 0.13165536522865295 0.35822880268096924
v 0.9663925766944885 0.13279247283935547 0.22011703252792358
v 0.9876883625984192 0.13307110965251923 0.0822424665093422
v 0.9510565400123596 0.2628655433654785 0.1624598503112793
v 0.9162441492080688 0.26408275961875916 0.3012588918209076
v 0.8910065293312073 0.3861873745918274 0.23867693543434143
v 0.9876883625984192 0.13307110965251923 -0.0822424665093422
v 0.9663925766944885 0.13279247283935547 -0.22011703252792358
v 0.9510565400123596 0.2628655433654785 -0.1624598503112793
v 0.9243046045303345 0.13165536522865295 -0.35822880268096924
v 0.9162441492080688 0.26408275961875916 -0.3012588918209076
v 0.8910065293312073 0.3861873745918274 -0.23867693543434143
v 0.8401778936386108 0.5192584991455078 0.15643446147441864
v 0.8506507873535156 0.525731086730957 0.0
v 0.7802043557167053 0.6202395558357239 0.08114185184240341
v 0.8401778936386108 0.5192584991455078 -0.15643446147441864
v 0.7802043557167053 0.6202395558357239 -0.08114185184240341
v 0.7029070258140564 0.7112817168235779 0.0
v 0.9638612866401672 0.2664046883583069 0.0
v 0.9129824638366699 0.3996070623397827 -0.0823235809803009
v 0.9129824638366699 0.3996070623397827 0.0823235809803009
v 0.0 0.0 0.0
f 1 2 3
f 2 4 5
f 3 5 6
f 2 5 3
f 4 7 8
f 7 9 10
f 8 10 11
f 7 10 8
f 6 12 13
f 12 11 14
f 13 14 15
f 12 14 13
f 4 8 5
f 8 11 12
f 5 12 6
f 8 12 5
f 9 16 17
f 16 18 19
f 17 19 20
f 16 19 17
f 18 21 22
f 21 23 24
f 22 24 25
f 21 24 22
f 20 26 27
f 26 25 28
f 27 28 29
f 26 28 27
f 18 22 19
f 22 25 26
f 19 26 20
f 22 26 19
f 15 30 31
f 30 32 33
f 31 33 34
f 30 33 31
f 32 35 36
f 35 29 37
f 36 37 38
f 35 37 36
f 34 39 40
f 39 38 41
f 40 41 42
f 39 41 40
f 32 36 33
f 36 38 39
f 33 39 34
f 36 39 33
f 9 17 10
f 17 20 43
f 10 43 11
f 17 43 10
f 20 27 44
f 27 29 35
f 44 35 32
f 27 35 44
f 11 45 14
f 45 32 30
f 14 30 15
f 45 30 14
f 20 44 43
f 44 32 45
f 43 45 11
f 44 45 43
f 1 3 46
f 3 6 47
f 46 47 48
f 3 47 46
f 6 13 49
f 13 15 50
f 49 50 51
f 13 50 49
f 48 52 53
f 52 51 54
f 53 54 55
f 52 54 53
f 6 49 47
f 49 51 52
f 47 52 48
f 49 52 47
f 15 31 56
f 31 34 57
f 56 57 58
f 31 57 56
f 34 40 59
f 40 42 60
f 59 60 61
f 40 60 59
f 58 62 63
f 62 61 64
f 63 64 65
f 62 64 63
f 34 59 57
f 59 61 62
f 57 62 58
f 59 62 57
f 55 66 67
f 66 68 69
f 67 69 70
f 66 69 67
f 68 71 72
f 71 65 73
f 72 73 74
f 71 73 72
f 70 75 76
f 75 74 77
f 76 77 78
f 75 77 76
f 68 72 69
f 72 74 75
f 69 75 70
f 72 75 69
f 15 56 50
f 56 58 79
f 50 79 51
f 56 79 50
f 58 63 80
f 63 65 71
f 80 71 68
f 63 71 80
f 51 81 54
f 81 68 66
f 54 66 55
f 81 66 54
f 58 80 79
f 80 68 81
f 79 81 51
f 80 81 79
f 1 46 82
f 46 48 83
f 82 83 84
f 46 83 82
f 48 53 85
f 53 55 86
f 85 86 87
f 53 86 85
f 84 88 89
f 88 87 90
f 89 90 91
f 88 90 89
f 48 85 83
f 85 87 88
f 83 88 84
f 85 88 83
f 55 67 92
f 67 70 93
f 92 93 94
f 67 93 92
f 70 76 95
f 76 78 96
f 95 96 97
f 76 96 95
f 94 98 99
f 98 97 100
f 99 100 101
f 98 100 99
f 70 95 93
f 95 97 98
f 93 98 94
f 95 98 93
f 91 102 103
f 102 104 105
f 103 105 106
f 102 105 103
f 104 107 108
f 107 101 109
f 108 109 110
f 107 109 108
f 106 111 112
f 111 110 113
f 112 113 114
f 111 113 112
f 104 108 105
f 108 110 111
f 105 111 106
f 108 111 105
f 55 92 86
f 92 94 115
f 86 115 87
f 92 115 86
f 94 99 116
f 99 101 107
f 116 107 104
f 99 107 116
f 87 117 90
f 117 104 102
f 90 102 91
f 117 102 90
f 94 116 115
f 116 104 117
f 115 117 87
f 116 117 115
f 1 82 118
f 82 84 119
f 118 119 120
f 82 119 118
f 84 89 121
f 89 91 122
f 121 122 123
f 89 122 121
f 120 124 125
f 124 123 126
f 125 126 127
f 124 126 125
f 84 121 119
f 121 123 124
f 119 124 120
f 121 124 119
f 91 103 128
f 103 106 129
f 128 129 130
f 103 129 128
f 106 112 131
f 112 114 132
f 131 132 133
f 112 132 131
f 130 134 135
f 134 133 136
f 135 136 137
f 134 136 135
f 106 131 129
f 131 133 134
f 129 134 130
f 131 134 129
f 127 138 139
f 138 140 141
f 139 141 142
f 138 141 139
f 140 143 144
f 143 137 145
f 144 145 146
f 143 145 144
f 142 147 148
f 147 146 149
f 148 149 150
f 147 149 148
f 140 144 141
f 144 146 147
f 141 147 142
f 144 147 141
f 91 128 122
f 128 130 151
f 122 151 123
f 128 151 122
f 130 135 152
f 135 137 143
f 152 143 140
f 135 143 152
f 123 153 126
f 153 140 138
f 126 138 127
f 153 138 126
f 130 152 151
f 152 140 153
f 151 153 123
f 152 153 151
f 1 118 2
f 118 120 154
f 2 154 4
f 118 154 2
f 120 125 155
f 125 127 156
f 155 156 157
f 125 156 155
f 4 158 7
f 158 157 159
f 7 159 9
f 158 159 7
f 120 155 154
f 155 157 158
f 154 158 4
f 155 158 154
f 127 139 160
f 139 142 161
f 160 161 162
f 139 161 160
f 142 148 163
f 148 150 164
f 163 164 165
f 148 164 163
f 162 166 167
f 166 165 168
f 167 168 169
f 166 168 167
f 142 163 161
f 163 165 166
f 161 166 162
f 163 166 161
f 9 170 16
f 170 171 172
f 16 172 18
f 170 172 16
f 171 173 174
f 173 169 175
f 174 175 176
f 173 175 174
f 18 177 21
f 177 176 178
f 21 178 23
f 177 178 21
f 171 174 172
f 174 176 177
f 172 177 18
f 174 177 172
f 127 160 156
f 160 162 179
f 156 179 157
f 160 179 156
f 162 167 180
f 167 169 173
f 180 173 171
f 167 173 180
f 157 181 159
f 181 171 170
f 159 170 9
f 181 170 159
f 162 180 179
f 180 171 181
f 179 181 157
f 180 181 179
f 78 77 182
f 77 74 183
f 182 183 184
f 77 183 182
f 74 73 185
f 73 65 186
f 185 186 187
f 73 186 185
f 184 188 189
f 188 187 190
f 189 190 191
f 188 190 189
f 74 185 183
f 185 187 188
f 183 188 184
f 185 188 183
f 65 64 192
f 64 61 193
f 192 193 194
f 64 193 192
f 61 60 195
f 60 42 196
f 195 196 197
f 60 196 195
f 194 198 199
f 198 197 200
f 199 200 201
f 198 200 199
f 61 195 193
f 195 197 198
f 193 198 194
f 195 198 193
f 191 202 203
f 202 204 205
f 203 205 206
f 202 205 203
f 204 207 208
f 207 201 209
f 208 209 210
f 207 209 208
f 206 211 212
f 211 210 213
f 212 213 214
f 211 213 212
f 204 208 205
f 208 210 211
f 205 211 206
f 208 211 205
f 65 192 186
f 192 194 215
f 186 215 187
f 192 215 186
f 194 199 216
f 199 201 207
f 216 207 204
f 199 207 216
f 187 217 190
f 217 204 202
f 190 202 191
f 217 202 190
f 194 216 215
f 216 204 217
f 215 217 187
f 216 217 215
f 42 41 218
f 41 38 219
f 218 219 220
f 41 219 218
f 38 37 221
f 37 29 222
f 221 222 223
f 37 222 221
f 220 224 225
f 224 223 226
f 225 226 227
f 224 226 225
f 38 221 219
f 221 223 224
f 219 224 220
f 221 224 219
f 29 28 228
f 28 25 229
f 228 229 230
f 28 229 228
f 25 24 231
f 24 23 232
f 231 232 233
f 24 232 231
f 230 234 235
f 234 233 236
f 235 236 237
f 234 236 235
f 25 231 229
f 231 233 234
f 229 234 230
f 231 234 229
f 227 238 239
f 238 240 241
f 239 241 242
f 238 241 239
f 240 243 244
f 243 237 245
f 244 245 246
f 243 245 244
f 242 247 248
f 247 246 249
f 248 249 250
f 247 249 248
f 240 244 241
f 244 246 247
f 241 247 242
f 244 247 241
f 29 228 222
f 228 230 251
f 222 251 223
f 228 251 222
f 230 235 252
f 235 237 243
f 252 243 240
f 235 243 252
f 223 253 226
f 253 240 238
f 226 238 227
f 253 238 226
f 230 252 251
f 252 240 253
f 251 253 223
f 252 253 251
f 23 178 254
f 178 176 255
f 254 255 256
f 178 255 254
f 176 175 257
f 175 169 258
f 257 258 259
f 175 258 257
f 256 260 261
f 260 259 262
f 261 262 263
f 260 262 261
f 176 257 255
f 257 259 260
f 255 260 256
f 257 260 255
f 169 168 264
f 168 165 265
f 264 265 266
f 168 265 264
f 165 164 267
f 164 150 268
f 267 268 269
f 164 268 267
f 266 270 271
f 270 269 272
f 271 272 273
f 270 272 271
f 165 267 265
f 267 269 270
f 265 270 266
f 267 270 265
f 263 274 275
f 274 276 277
f 275 277 278
f 274 277 275
f 276 279 280
f 279 273 281
f 280 281 282
f 279 281 280
f 278 283 284
f 283 282 285
f 284 285 286
f 283 285 284
f 276 280 277
f 280 282 283
f 277 283 278
f 280 283 277
f 169 264 258
f 264 266 287
f 258 287 259
f 264 287 258
f 266 271 288
f 271 273 279
f 288 279 276
f 271 279 288
f 259 289 262
f 289 276 274
f 262 274 263
f 289 274 262
f 266 288 287
f 288 276 289
f 287 289 259
f 288 289 287
f 150 149 290
f 149 146 291
f 290 291 292
f 149 291 290
f 146 145 293
f 145 137 294
f 293 294 295
f 145 294 293
f 292 296 297
f 296 295 298
f 297 298 299
f 296 298 297
f 146 293 291
f 293 295 296
f 291 296 292
f 293 296 291
f 137 136 300
f 136 133 301
f 300 301 302
f 136 301 300
f 133 132 303
f 132 114 304
f 303 304 305
f 132 304 303
f 302 306 307
f 306 305 308
f 307 308 309
f 306 308 307
f 133 303 301
f 303 305 306
f 301 306 302
f 303 306 301
f 299 310 311
f 310 312 313
f 311 313 314
f 310 313 311
f 312 315 316
f 315 309 317
f 316 317 318
f 315 317 316
f 314 319 320
f 319 318 321
f 320 321 322
f 319 321 320
f 312 316 313
f 316 318 319
f 313 319 314
f 316 319 313
f 137 300 294
f 300 302 323
f 294 323 295
f 300 323 294
f 302 307 324
f 307 309 315
f 324 315 312
f 307 315 324
f 295 325 298
f 325 312 310
f 298 310 299
f 325 310 298
f 302 324 323
f 324 312 325
f 323 325 295
f 324 325 323
f 114 113 326
f 113 110 327
f 326 327 328
f 113 327 326
f 110 109 329
f 109 101 330
f 329 330 331
f 109 330 329
f 328 332 333
f 332 331 334
f 333 334 335
f 332 334 333
f 110 329 327
f 329 331 332
f 327 332 328
f 329 332 327
f 101 100 336
f 100 97 337
f 336 337 338
f 100 337 336
f 97 96 339
f 96 78 340
f 339 340 341
f 96 340 339
f 338 342 343
f 342 341 344
f 343 344 345
f 342 344 343
f 97 339 337
f 339 341 342
f 337 342 338
f 339 342 337
f 335 346 347
f 346 348 349
f 347 349 350
f 346 349 347
f 348 351 352
f 351 345 353
f 352 353 354
f 351 353 352
f 350 355 356
f 355 354 357
f 356 357 358
f 355 357 356
f 348 352 349
f 352 354 355
f 349 355 350
f 352 355 349
f 101 336 330
f 336 338 359
f 330 359 331
f 336 359 330
f 338 343 360
f 343 345 351
f 360 351 348
f 343 351 360
f 331 361 334
f 361 348 346
f 334 346 335
f 361 346 334
f 338 360 359
f 360 348 361
f 359 361 331
f 360 361 359
f 362 363 364
f 363 365 366
f 364 366 367
f 363 366 364
f 365 368 369
f 368 370 371
f 369 371 372
f 368 371 369
f 367 373 374
f 373 372 375
f 374 375 376
f 373 375 374
f 365 369 366
f 369 372 373
f 366 373 367
f 369 373 366
f 370 377 378
f 377 379 380
f 378 380 381
f 377 380 378
f 379 382 383
f 382 214 384
f 383 384 385
f 382 384 383
f 381 386 387
f 386 385 388
f 387 388 389
f 386 388 387
f 379 383 380
f 383 385 386
f 380 386 381
f 383 386 380
f 376 390 391
f 390 392 393
f 391 393 394
f 390 393 391
f 392 395 396
f 395 389 397
f 396 397 398
f 395 397 396
f 394 399 400
f 399 398 401
f 400 401 250
f 399 401 400
f 392 396 393
f 396 398 399
f 393 399 394
f 396 399 393
f 370 378 371
f 378 381 402
f 371 402 372
f 378 402 371
f 381 387 403
f 387 389 395
f 403 395 392
f 387 395 403
f 372 404 375
f 404 392 390
f 375 390 376
f 404 390 375
f 381 403 402
f 403 392 404
f 402 404 372
f 403 404 402
f 362 364 405
f 364 367 406
f 405 406 407
f 364 406 405
f 367 374 408
f 374 376 409
f 408 409 410
f 374 409 408
f 407 411 412
f 411 410 413
f 412 413 414
f 411 413 412
f 367 408 406
f 408 410 411
f 406 411 407
f 408 411 406
f 376 391 415
f 391 394 416
f 415 416 417
f 391 416 415
f 394 400 418
f 400 250 419
f 418 419 420
f 400 419 418
f 417 421 422
f 421 420 423
f 422 423 424
f 421 423 422
f 394 418 416
f 418 420 421
f 416 421 417
f 418 421 416
f 414 425 426
f 425 427 428
f 426 428 429
f 425 428 426
f 427 430 431
f 430 424 432
f 431 432 433
f 430 432 431
f 429 434 435
f 434 433 436
f 435 436 286
f 434 436 435
f 427 431 428
f 431 433 434
f 428 434 429
f 431 434 428
f 376 415 409
f 415 417 437
f 409 437 410
f 415 437 409
f 417 422 438
f 422 424 430
f 438 430 427
f 422 430 438
f 410 439 413
f 439 427 425
f 413 425 414
f 439 425 413
f 417 438 437
f 438 427 439
f 437 439 410
f 438 439 437
f 362 405 440
f 405 407 441
f 440 441 442
f 405 441 440
f 407 412 443
f 412 414 444
f 443 444 445
f 412 444 443
f 442 446 447
f 446 445 448
f 447 448 449
f 446 448 447
f 407 443 441
f 443 445 446
f 441 446 442
f 443 446 441
f 414 426 450
f 426 429 451
f 450 451 452
f 426 451 450
f 429 435 453
f 435 286 454
f 453 454 455
f 435 454 453
f 452 456 457
f 456 455 458
f 457 458 459
f 456 458 457
f 429 453 451
f 453 455 456
f 451 456 452
f 453 456 451
f 449 460 461
f 460 462 463
f 461 463 464
f 460 463 461
f 462 465 466
f 465 459 467
f 466 467 468
f 465 467 466
f 464 469 470
f 469 468 471
f 470 471 322
f 469 471 470
f 462 466 463
f 466 468 469
f 463 469 464
f 466 469 463
f 414 450 444
f 450 452 472
f 444 472 445
f 450 472 444
f 452 457 473
f 457 459 465
f 473 465 462
f 457 465 473
f 445 474 448
f 474 462 460
f 448 460 449
f 474 460 448
f 452 473 472
f 473 462 474
f 472 474 445
f 473 474 472
f 362 440 475
f 440 442 476
f 475 476 477
f 440 476 475
f 442 447 478
f 447 449 479
f 478 479 480
f 447 479 478
f 477 481 482
f 481 480 483
f 482 483 484
f 481 483 482
f 442 478 476
f 478 480 481
f 476 481 477
f 478 481 476
f 449 461 485
f 461 464 486
f 485 486 487
f 461 486 485
f 464 470 488
f 470 322 489
f 488 489 490
f 470 489 488
f 487 491 492
f 491 490 493
f 492 493 494
f 491 493 492
f 464 488 486
f 488 490 491
f 486 491 487
f 488 491 486
f 484 495 496
f 495 497 498
f 496 498 499
f 495 498 496
f 497 500 501
f 500 494 502
f 501 502 503
f 500 502 501
f 499 504 505
f 504 503 506
f 505 506 358
f 504 506 505
f 497 501 498
f 501 503 504
f 498 504 499
f 501 504 498
f 449 485 479
f 485 487 507
f 479 507 480
f 485 507 479
f 487 492 508
f 492 494 500
f 508 500 497
f 492 500 508
f 480 509 483
f 509 497 495
f 483 495 484
f 509 495 483
f 487 508 507
f 508 497 509
f 507 509 480
f 508 509 507
f 362 475 363
f 475 477 510
f 363 510 365
f 475 510 363
f 477 482 511
f 482 484 512
f 511 512 513
f 482 512 511
f 365 514 368
f 514 513 515
f 368 515 370
f 514 515 368
f 477 511 510
f 511 513 514
f 510 514 365
f 511 514 510
f 484 496 516
f 496 499 517
f 516 517 518
f 496 517 516
f 499 505 519
f 505 358 520
f 519 520 521
f 505 520 519
f 518 522 523
f 522 521 524
f 523 524 525
f 522 524 523
f 499 519 517
f 519 521 522
f 517 522 518
f 519 522 517
f 370 526 377
f 526 527 528
f 377 528 379
f 526 528 377
f 527 529 530
f 529 525 531
f 530 531 532
f 529 531 530
f 379 533 382
f 533 532 534
f 382 534 214
f 533 534 382
f 527 530 528
f 530 532 533
f 528 533 379
f 530 533 528
f 484 516 512
f 516 518 535
f 512 535 513
f 516 535 512
f 518 523 536
f 523 525 529
f 536 529 527
f 523 529 536
f 513 537 515
f 537 527 526
f 515 526 370
f 537 526 515
f 518 536 535
f 536 527 537
f 535 537 513
f 536 537 535
f 250 401 248
f 401 398 538
f 248 538 242
f 401 538 248
f 398 397 539
f 397 389 540
f 539 540 541
f 397 540 539
f 242 542 239
f 542 541 543
f 239 543 227
f 542 543 239
f 398 539 538
f 539 541 542
f 538 542 242
f 539 542 538
f 389 388 544
f 388 385 545
f 544 545 546
f 388 545 544
f 385 384 547
f 384 214 213
f 547 213 210
f 384 213 547
f 546 548 549
f 548 210 209
f 549 209 201
f 548 209 549
f 385 547 545
f 547 210 548
f 545 548 546
f 547 548 545
f 227 550 225
f 550 551 552
f 225 552 220
f 550 552 225
f 551 553 554
f 553 201 200
f 554 200 197
f 553 200 554
f 220 555 218
f 555 197 196
f 218 196 42
f 555 196 218
f 551 554 552
f 554 197 555
f 552 555 220
f 554 555 552
f 389 544 540
f 544 546 556
f 540 556 541
f 544 556 540
f 546 549 557
f 549 201 553
f 557 553 551
f 549 553 557
f 541 558 543
f 558 551 550
f 543 550 227
f 558 550 543
f 546 557 556
f 557 551 558
f 556 558 541
f 557 558 556
f 286 436 284
f 436 433 559
f 284 559 278
f 436 559 284
f 433 432 560
f 432 424 561
f 560 561 562
f 432 561 560
f 278 563 275
f 563 562 564
f 275 564 263
f 563 564 275
f 433 560 559
f 560 562 563
f 559 563 278
f 560 563 559
f 424 423 565
f 423 420 566
f 565 566 567
f 423 566 565
f 420 419 568
f 419 250 249
f 568 249 246
f 419 249 568
f 567 569 570
f 569 246 245
f 570 245 237
f 569 245 570
f 420 568 566
f 568 246 569
f 566 569 567
f 568 569 566
f 263 571 261
f 571 572 573
f 261 573 256
f 571 573 261
f 572 574 575
f 574 237 236
f 575 236 233
f 574 236 575
f 256 576 254
f 576 233 232
f 254 232 23
f 576 232 254
f 572 575 573
f 575 233 576
f 573 576 256
f 575 576 573
f 424 565 561
f 565 567 577
f 561 577 562
f 565 577 561
f 567 570 578
f 570 237 574
f 578 574 572
f 570 574 578
f 562 579 564
f 579 572 571
f 564 571 263
f 579 571 564
f 567 578 577
f 578 572 579
f 577 579 562
f 578 579 577
f 322 471 320
f 471 468 580
f 320 580 314
f 471 580 320
f 468 467 581
f 467 459 582
f 581 582 583
f 467 582 581
f 314 584 311
f 584 583 585
f 311 585 299
f 584 585 311
f 468 581 580
f 581 583 584
f 580 584 314
f 581 584 580
f 459 458 586
f 458 455 587
f 586 587 588
f 458 587 586
f 455 454 589
f 454 286 285
f 589 285 282
f 454 285 589
f 588 590 591
f 590 282 281
f 591 281 273
f 590 281 591
f 455 589 587
f 589 282 590
f 587 590 588
f 589 590 587
f 299 592 297
f 592 593 594
f 297 594 292
f 592 594 297
f 593 595 596
f 595 273 272
f 596 272 269
f 595 272 596
f 292 597 290
f 597 269 268
f 290 268 150
f 597 268 290
f 593 596 594
f 596 269 597
f 594 597 292
f 596 597 594
f 459 586 582
f 586 588 598
f 582 598 583
f 586 598 582
f 588 591 599
f 591 273 595
f 599 595 593
f 591 595 599
f 583 600 585
f 600 593 592
f 585 592 299
f 600 592 585
f 588 599 598
f 599 593 600
f 598 600 583
f 599 600 598
f 358 506 356
f 506 503 601
f 356 601 350
f 506 601 356
f 503 502 602
f 502 494 603
f 602 603 604
f 502 603 602
f 350 605 347
f 605 604 606
f 347 606 335
f 605 606 347
f 503 602 601
f 602 604 605
f 601 605 350
f 602 605 601
f 494 493 607
f 493 490 608
f 607 608 609
f 493 608 607
f 490 489 610
f 489 322 321
f 610 321 318
f 489 321 610
f 609 611 612
f 611 318 317
f 612 317 309
f 611 317 612
f 490 610 608
f 610 318 611
f 608 611 609
f 610 611 608
f 335 613 333
f 613 614 615
f 333 615 328
f 613 615 333
f 614 616 617
f 616 309 308
f 617 308 305
f 616 308 617
f 328 618 326
f 618 305 304
f 326 304 114
f 618 304 326
f 614 617 615
f 617 305 618
f 615 618 328
f 617 618 615
f 494 607 603
f 607 609 619
f 603 619 604
f 607 619 603
f 609 612 620
f 612 309 616
f 620 616 614
f 612 616 620
f 604 621 606
f 621 614 613
f 606 613 335
f 621 613 606
f 609 620 619
f 620 614 621
f 619 621 604
f 620 621 619
f 214 534 212
f 534 532 622
f 212 622 206
f 534 622 212
f 532 531 623
f 531 525 624
f 623 624 625
f 531 624 623
f 206 626 203
f 626 625 627
f 203 627 191
f 626 627 203
f 532 623 622
f 623 625 626
f 622 626 206
f 623 626 622
f 525 524 628
f 524 521 629
f 628 629 630
f 524 629 628
f 521 520 631
f 520 358 357
f 631 357 354
f 520 357 631
f 630 632 633
f 632 354 353
f 633 353 345
f 632 353 633
f 521 631 629
f 631 354 632
f 629 632 630
f 631 632 629
f 191 634 189
f 634 635 636
f 189 636 184
f 634 636 189
f 635 637 638
f 637 345 344
f 638 344 341
f 637 344 638
f 184 639 182
f 639 341 340
f 182 340 78
f 639 340 182
f 635 638 636
f 638 341 639
f 636 639 184
f 638 639 636
f 525 628 624
f 628 630 640
f 624 640 625
f 628 640 624
f 630 633 641
f 633 345 637
f 641 637 635
f 633 637 641
f 625 642 627
f 642 635 634
f 627 634 191
f 642 634 627
f 630 641 640
f 641 635 642
f 640 642 625
f 641 642 640
